:SAMPLES-PER-SECOND 30
:FULLY-SPECIFIED
:DEGREES
218
root  42.5307 38.0297 25.1517 50.1616 86.6981 25.0347
RightUpLeg  -55.2378 -21.7686 17.7289
RightLeg  27.6557 0.498601 0.0482337
RightFoot  -0.303512 1.09087 -11.259
RightToes  0.00048216 0.542163 -0.142577
Spine  66.6333 -6.17264 9.30903
Spine1  6.19094 1.89938 -7.49274
HEad  -39.616 -4.95497 -8.34671
LeftShoulder1  8.33715 -28.2416 -19.5421
LeftArm  -43.7329 -69.0791 -2.73395
LeftForeArm  32.3233 -1.2256 -3.23811
LeftHand  -0.25398 0.0180481 5.50724
RightShoulder  3.96056 15.7584 13.6153
RightArm  -59.06 64.4436 -16.2789
RightForeArm  12.9608 -1.28144 2.25857
RightHand  -0.33111 -2.79916 -14.4901
LeftUpLeg  -53.2745 17.1622 -15.71
LeftLeg  25.3921 3.17272 1.97888
LeftFoot  1.54292 -0.798435 6.97673
LeftToes  1.06244e-005 4.65856e-005 -8.18505e-006
219
root  42.2991 38.2798 25.0901 47.7906 86.7916 24.5744
RightUpLeg  -52.5365 -23.3317 17.8169
RightLeg  25.2084 1.58677 0.579423
RightFoot  1.11957 1.29948 -11.7786
RightToes  0.00048216 0.542163 -0.142577
Spine  64.9894 -5.89832 9.41231
Spine1  6.33423 1.97024 -6.99957
HEad  -38.1378 -3.92229 -10.3477
LeftShoulder1  9.20741 -27.7889 -22.9029
LeftArm  -33.3154 -64.4077 -13.4302
LeftForeArm  31.3477 -1.09111 -3.73523
LeftHand  -0.25398 0.0180481 5.50724
RightShoulder  4.23054 15.57 15.3898
RightArm  -50.014 63.6337 -6.75923
RightForeArm  12.5707 -0.321536 3.05056
RightHand  -0.421431 -2.24691 -15.1426
LeftUpLeg  -50.5332 17.2371 -14.783
LeftLeg  23.5708 3.08922 1.81014
LeftFoot  3.25977 -0.894995 6.81538
LeftToes  1.06244e-005 4.65856e-005 -8.18505e-006
220
root  42.0773 38.577 25.0375 53.887 86.8346 32.543
RightUpLeg  -49.6892 -25.1261 17.4025
RightLeg  22.3394 2.67276 0.9737
RightFoot  2.72097 1.50365 -11.9865
RightToes  0.00048216 0.542163 -0.142577
Spine  63.3593 -5.63861 9.26305
Spine1  6.32939 1.79098 -6.37591
HEad  -36.4325 -2.72199 -12.368
LeftShoulder1  10.1105 -27.1254 -26.6551
LeftArm  -25.9846 -58.5246 -19.9067
LeftForeArm  30.4661 -1.166 -4.47227
LeftHand  -0.25398 0.0180481 5.50724
RightShoulder  4.51157 15.4694 17.1332
RightArm  -40.1438 61.3932 2.29308
RightForeArm  12.7925 0.76555 4.14229
RightHand  -0.264293 -3.23106 -13.2178
LeftUpLeg  -47.5998 17.4856 -14.4395
LeftLeg  21.0803 2.15826 1.26409
LeftFoot  5.96144 -0.961552 6.10309
LeftToes  1.06244e-005 4.65856e-005 -8.18505e-006
221
root  41.8715 38.8852 24.9833 68.3691 86.6785 49.204
RightUpLeg  -46.054 -26.5548 15.3297
RightLeg  19.4624 2.56949 1.54977
RightFoot  4.16804 1.65236 -11.8709
RightToes  0.00048216 0.542163 -0.142577
Spine  61.8958 -5.57444 8.98678
Spine1  6.36691 1.29121 -5.95825
HEad  -34.9162 -1.31308 -14.0614
LeftShoulder1  10.7907 -26.2722 -29.9859
LeftArm  -20.8941 -52.3584 -23.2397
LeftForeArm  29.1098 -0.727195 -5.28877
LeftHand  -0.25398 0.0180481 5.50724
RightShoulder  4.82848 15.4724 18.9314
RightArm  -31.5681 57.8492 9.50793
RightForeArm  12.5658 1.78153 5.21158
RightHand  -0.140194 -4.17157 -11.3787
LeftUpLeg  -43.8516 17.2699 -13.8562
LeftLeg  18.367 0.00463383 0.293671
LeftFoot  8.22923 -0.671297 3.60632
LeftToes  1.06244e-005 4.65856e-005 -8.18505e-006
222
root  41.6718 39.1551 24.881 83.0299 86.303 66.2683
RightUpLeg  -40.9147 -25.1471 9.74698
RightLeg  16.8829 -1.52596 2.68593
RightFoot  5.41414 1.74324 -11.5359
RightToes  0.00048216 0.542163 -0.142577
Spine  60.8679 -5.81169 8.84167
Spine1  6.0899 0.613812 -5.86437
HEad  -33.1135 0.624336 -15.8652
LeftShoulder1  11.2186 -25.075 -33.0478
LeftArm  -17.2508 -45.8362 -25.0248
LeftForeArm  27.3504 -0.366822 -5.94179
LeftHand  -0.25398 0.0180481 5.50724
RightShoulder  5.29081 15.7031 21.1809
RightArm  -24.848 53.0979 14.6582
RightForeArm  11.6014 2.9361 6.13852
RightHand  -0.151131 -4.01311 -10.9141
LeftUpLeg  -39.5245 15.2688 -11.972
LeftLeg  16.8509 -1.78655 -0.45134
LeftFoot  7.78749 0.000798487 -0.353934
LeftToes  1.06244e-005 4.65856e-005 -8.18505e-006
223
root  41.4503 39.3599 24.6829 93.2316 85.6198 78.5064
RightUpLeg  -36.5535 -22.6183 4.19347
RightLeg  14.6995 -6.10602 3.80587
RightFoot  6.69452 1.80877 -11.0634
RightToes  0.00048216 0.542163 -0.142577
Spine  59.4584 -5.96713 8.84357
Spine1  6.30404 0.242584 -5.81939
HEad  -30.9394 2.66675 -17.9345
LeftShoulder1  11.5871 -23.9463 -35.9812
LeftArm  -14.8721 -38.9525 -26.1342
LeftForeArm  26.0557 -0.70865 -6.25393
LeftHand  -0.25398 0.0180481 5.50724
RightShoulder  5.75979 15.7532 23.6957
RightArm  -19.9708 47.4961 17.6676
RightForeArm  9.36774 4.28576 6.93338
RightHand  -0.24726 -3.12208 -11.7515
LeftUpLeg  -35.8758 12.0734 -9.84925
LeftLeg  17.4904 -2.46224 -0.590941
LeftFoot  4.11464 0.466347 -3.60604
LeftToes  1.06244e-005 4.65856e-005 -8.18505e-006
224
root  41.2178 39.5051 24.4718 101.113 85.0404 88.35
RightUpLeg  -32.8348 -20.0867 -0.217687
RightLeg  12.7806 -10.2039 4.66307
RightFoot  7.86139 1.84716 -10.5606
RightToes  0.00048216 0.542163 -0.142577
Spine  57.5599 -5.68856 9.02211
Spine1  7.22504 0.319701 -5.20843
HEad  -28.9853 4.13468 -19.5709
LeftShoulder1  12.0764 -23.2954 -38.7591
LeftArm  -13.0021 -32.0809 -26.4015
LeftForeArm  25.874 -1.57121 -6.53476
LeftHand  -0.25398 0.0180481 5.50724
RightShoulder  6.05121 15.2587 26.1472
RightArm  -16.3576 41.523 19.2925
RightForeArm  6.05387 5.75376 7.62587
RightHand  -0.379388 -2.21425 -13.4381
LeftUpLeg  -32.497 9.68037 -8.08161
LeftLeg  19.3884 -0.840986 0.0118248
LeftFoot  -0.942054 0.38382 -4.06879
LeftToes  1.06244e-005 4.65856e-005 -8.18505e-006
225
root  40.964 39.6004 24.2288 107.823 84.5208 96.7537
RightUpLeg  -29.9045 -18.1024 -3.41884
RightLeg  11.0507 -13.3471 5.32043
RightFoot  8.89957 1.87137 -10.106
RightToes  0.00048216 0.542163 -0.142577
Spine  55.9906 -5.48612 9.0847
Spine1  7.30285 0.270531 -4.69728
HEad  -27.4425 5.59112 -20.8964
LeftShoulder1  12.4673 -22.4198 -41.6491
LeftArm  -10.5172 -25.1389 -25.0578
LeftForeArm  26.0013 -2.95917 -7.22665
LeftHand  -0.25398 0.0180481 5.50724
RightShoulder  6.27355 14.747 28.3437
RightArm  -12.8129 35.2462 20.7854
RightForeArm  3.0938 7.32746 8.24534
RightHand  -0.495037 -1.59018 -14.903
LeftUpLeg  -29.3358 8.81758 -6.7801
LeftLeg  21.5139 2.43434 1.39063
LeftFoot  -4.70945 0.214563 -3.24228
LeftToes  1.06244e-005 4.65856e-005 -8.18505e-006
226
root  40.6782 39.6532 23.935 114.368 84.1266 104.749
RightUpLeg  -27.6246 -16.5869 -5.74444
RightLeg  9.56023 -15.7587 5.79355
RightFoot  9.8937 1.88001 -9.6352
RightToes  0.00048216 0.542163 -0.142577
Spine  54.6793 -5.61076 9.30568
Spine1  6.86286 0.110419 -4.72193
HEad  -25.6163 7.54335 -22.7852
LeftShoulder1  12.6336 -21.3377 -44.2272
LeftArm  -7.95446 -18.4667 -22.7631
LeftForeArm  25.4606 -4.54979 -7.96572
LeftHand  -0.25398 0.0180481 5.50724
RightShoulder  6.58978 14.428 30.7696
RightArm  -8.48456 28.8587 21.4377
RightForeArm  0.714465 9.11973 8.78435
RightHand  -0.534707 -1.32478 -15.0766
LeftUpLeg  -26.3259 8.65665 -5.18282
LeftLeg  23.6986 5.16784 2.808
LeftFoot  -6.79685 0.173612 -3.38854
LeftToes  1.06244e-005 4.65856e-005 -8.18505e-006
227
root  40.3448 39.6493 23.566 120.67 83.8545 112.44
RightUpLeg  -25.8807 -15.8656 -7.33603
RightLeg  8.55817 -17.2395 6.03239
RightFoot  10.9284 1.858 -9.03189
RightToes  0.00048216 0.542163 -0.142577
Spine  52.7865 -5.54696 9.64099
Spine1  7.58483 0.0738187 -4.24939
HEad  -23.1976 10.0337 -25.5354
LeftShoulder1  12.6773 -20.4348 -46.1477
LeftArm  -7.05086 -12.6038 -21.2774
LeftForeArm  24.391 -5.86264 -8.01844
LeftHand  -0.25398 0.0180481 5.50724
RightShoulder  6.77261 14.1438 32.4119
RightArm  -3.72563 22.9312 21.4688
RightForeArm  -1.67121 10.8152 9.07301
RightHand  -0.516543 -1.32012 -14.5411
LeftUpLeg  -23.2645 8.08359 -2.97814
LeftLeg  25.911 6.45666 3.73735
LeftFoot  -8.47833 0.157265 -4.24671
LeftToes  1.06244e-005 4.65856e-005 -8.18505e-006
228
root  39.9495 39.584 23.1248 125.361 83.6313 118.574
RightUpLeg  -24.5295 -15.9767 -8.47269
RightLeg  8.12215 -17.7105 6.07394
RightFoot  11.919 1.79827 -8.31625
RightToes  0.00048216 0.542163 -0.142577
Spine  51.0345 -5.51248 9.92579
Spine1  8.26704 0.0558479 -3.98426
HEad  -20.4694 13.1693 -27.4455
LeftShoulder1  12.451 -19.7306 -46.7244
LeftArm  -7.74691 -6.5802 -21.1679
LeftForeArm  23.2402 -7.17115 -7.3899
LeftHand  -0.25398 0.0180481 5.50724
RightShoulder  6.90493 13.8598 33.8005
RightArm  1.30408 17.3492 21.5187
RightForeArm  -4.23852 12.2065 9.21871
RightHand  -0.502159 -1.48765 -14.717
LeftUpLeg  -20.0883 6.84257 -0.520523
LeftLeg  28.0314 7.23254 4.49834
LeftFoot  -10.145 0.107195 -4.33645
LeftToes  1.06244e-005 4.65856e-005 -8.18505e-006
229
root  39.4788 39.4663 22.6223 129.407 83.4167 124.118
RightUpLeg  -23.5004 -16.37 -9.48083
RightLeg  8.19286 -17.6862 5.90782
RightFoot  12.7371 1.68717 -7.48197
RightToes  0.00048216 0.542163 -0.142577
Spine  49.8415 -5.63451 10.1456
Spine1  8.21272 -0.0911848 -3.92131
HEad  -17.8399 16.5741 -27.5422
LeftShoulder1  12.1209 -19.0798 -46.8087
LeftArm  -8.75789 -0.51223 -21.1849
LeftForeArm  22.022 -8.74071 -6.61154
LeftHand  -0.25398 0.0180481 5.50724
RightShoulder  6.95194 13.5405 34.8123
RightArm  6.2245 11.8841 22.0791
RightForeArm  -6.21024 13.4038 9.18653
RightHand  -0.478624 -1.84106 -15.3509
LeftUpLeg  -16.9689 5.14031 1.95277
LeftLeg  30.071 8.06782 5.36234
LeftFoot  -11.1651 0.0726706 -3.90987
LeftToes  1.06244e-005 4.65856e-005 -8.18505e-006
230
root  38.927 39.2937 22.0532 133.804 83.2347 129.955
RightUpLeg  -22.9104 -16.7294 -10.4163
RightLeg  8.6754 -17.5806 5.50272
RightFoot  13.5786 1.52536 -6.46848
RightToes  0.00048216 0.542163 -0.142577
Spine  48.704 -5.76009 10.4229
Spine1  8.02028 -0.282472 -3.67142
HEad  -15.2407 19.8912 -27.4074
LeftShoulder1  11.9784 -18.4965 -47.5065
LeftArm  -9.32498 4.73322 -20.2405
LeftForeArm  20.5021 -10.3115 -5.98343
LeftHand  -0.25398 0.0180481 5.50724
RightShoulder  6.93456 13.2066 35.5141
RightArm  10.964 6.48283 22.685
RightForeArm  -7.34734 14.7653 8.8595
RightHand  -0.433128 -2.16538 -15.1984
LeftUpLeg  -14.024 3.57751 4.39874
LeftLeg  31.7904 8.31395 5.86355
LeftFoot  -11.736 0.0548354 -4.27644
LeftToes  1.06244e-005 4.65856e-005 -8.18505e-006
231
root  38.3121 39.061 21.4141 137.833 83.1499 135.381
RightUpLeg  -22.5841 -17.3628 -11.2062
RightLeg  9.24224 -17.2556 5.0825
RightFoot  14.7355 1.37854 -5.50367
RightToes  0.00048216 0.542163 -0.142577
Spine  47.3814 -5.79834 10.6566
Spine1  8.20844 -0.370922 -3.44446
HEad  -12.9548 22.8286 -28.3227
LeftShoulder1  11.9365 -17.9828 -48.4902
LeftArm  -9.89193 8.99374 -18.8486
LeftForeArm  18.9918 -11.6799 -5.39867
LeftHand  -0.25398 0.0180481 5.50724
RightShoulder  6.94602 12.9052 36.3299
RightArm  15.7297 1.20364 22.9088
RightForeArm  -8.85197 16.446 8.24726
RightHand  -0.436527 -2.02818 -14.7266
LeftUpLeg  -11.0787 2.75768 6.72433
LeftLeg  32.6832 7.7608 5.68143
LeftFoot  -12.6596 0.0178713 -5.07042
LeftToes  1.06244e-005 4.65856e-005 -8.18505e-006
232
root  37.6531 38.7819 20.721 141.302 83.1538 140.291
RightUpLeg  -22.1589 -18.3321 -11.8877
RightLeg  9.52092 -16.5672 4.86902
RightFoot  16.028 1.31862 -4.94906
RightToes  0.00048216 0.542163 -0.142577
Spine  46.1575 -5.80351 10.6755
Spine1  8.43618 -0.395483 -3.55187
HEad  -10.9771 25.7457 -28.8524
LeftShoulder1  11.6955 -17.4622 -48.694
LeftArm  -10.9408 12.7538 -18.1315
LeftForeArm  18.0967 -12.9366 -4.76095
LeftHand  -0.25398 0.0180481 5.50724
RightShoulder  6.9784 12.6172 37.2617
RightArm  20.2801 -4.0788 23.2048
RightForeArm  -11.6011 18.1936 7.54829
RightHand  -0.537381 -1.41085 -15.427
LeftUpLeg  -8.11717 2.45912 8.80927
LeftLeg  32.7023 7.07577 5.22069
LeftFoot  -13.5234 -0.0127156 -4.9215
LeftToes  1.06244e-005 4.65856e-005 -8.18505e-006
